<?xml version="1.0" encoding="utf-8"?>
<!-- Generator: Adobe Illustrator 26.1.0, SVG Export Plug-In . SVG Version: 6.00 Build 0)  -->
<svg version="1.1" id="Layer_1" xmlns="http://www.w3.org/2000/svg" xmlns:xlink="http://www.w3.org/1999/xlink" x="0px" y="0px"
	 viewBox="0 0 66.45 60" enable-background="new 0 0 66.45 60" xml:space="preserve">
<g>
	<polygon fill="#F2AB1D" points="0.03,16.78 0.03,25.44 5.17,25.44 5.17,51.78 0.16,51.78 0.16,59.44 21.61,59.44 21.61,51.78 
		16.59,51.78 16.59,16.78 	"/>
	<path fill="#F2AB1D" d="M21.86,26.26c0-5.71,4.77-10.04,10.6-10.04S43,20.55,43,26.26c0,5.64-4.7,10.1-10.54,10.1
		S21.86,31.9,21.86,26.26 M53.47,16.78h8.28L34.97,59.44h-8.28L53.47,16.78z M35.41,26.26c0-2.7-1.25-4.08-2.95-4.08
		c-1.76,0-2.95,1.38-2.95,4.08c0,2.82,1.19,4.14,2.95,4.14C34.15,30.39,35.41,29.08,35.41,26.26 M45.32,49.9
		c0-5.71,4.77-10.04,10.6-10.04s10.54,4.33,10.54,10.04c0,5.71-4.7,10.1-10.54,10.1S45.32,55.61,45.32,49.9 M58.86,49.9
		c0-2.7-1.25-4.08-2.95-4.08c-1.76,0-2.95,1.38-2.95,4.08c0,2.82,1.19,4.14,2.95,4.14C57.61,54.04,58.86,52.72,58.86,49.9"/>
	<path fill="#FFFFFF" d="M4.54,0.01L0.03,0L0,11.16l2.99,0.01L3,7.97l1.52,0c2.84,0.01,4.42-1.66,4.42-3.94
		C8.95,1.75,7.38,0.02,4.54,0.01 M4.38,5.48L3,5.47l0.01-2.94l1.38,0c1.02,0,1.56,0.56,1.56,1.48C5.94,4.94,5.4,5.48,4.38,5.48"/>
	<polygon fill="#FFFFFF" points="14.47,0.04 11.48,0.03 11.45,11.19 19.18,11.21 19.19,8.7 14.45,8.69 	"/>
	<polygon fill="#FFFFFF" points="24.71,6.8 28.74,6.81 28.75,4.43 24.71,4.42 24.72,2.58 29.56,2.59 29.56,0.08 21.74,0.06 
		21.71,11.22 29.76,11.24 29.77,8.73 24.7,8.72 	"/>
	<path fill="#FFFFFF" d="M36.7,0.1l-4.32-0.01l-0.03,11.16l4.32,0.01c3.22,0.01,5.65-2.1,5.66-5.56C42.34,2.23,39.92,0.11,36.7,0.1
		 M36.35,8.73l-1,0l0.02-6.1l1,0c1.81,0,2.92,1.21,2.91,3.06C39.27,7.54,38.16,8.74,36.35,8.73"/>
	<path fill="#FFFFFF" d="M49.59,7.37l2.22,0.01l0,1.12c-0.48,0.23-1.08,0.44-2.17,0.44c-1.97,0-2.98-1.47-2.98-3.22
		c0-1.76,1.01-3.12,2.83-3.11c1.12,0,1.9,0.48,2.46,1.2L54.04,2c-0.96-1.25-2.5-1.99-4.47-2C46.35,0,43.62,2.34,43.61,5.7
		c-0.01,3.36,2.71,5.73,5.99,5.74c2.48,0.01,3.83-0.68,4.86-1.53l0.01-4.83L49.6,5.08L49.59,7.37z"/>
	<polygon fill="#FFFFFF" points="60.09,8.81 60.09,6.89 64.13,6.9 64.14,4.53 60.1,4.51 60.11,2.68 64.95,2.69 64.96,0.18 
		57.13,0.16 57.1,11.32 65.15,11.34 65.16,8.83 	"/>
</g>
</svg>
